{
	"asset":{
		"generator":"Khronos glTF Blender I/O v4.0.44",
		"version":"2.0"
	},
	"scene":0,
	"scenes":[
		{
			"name":"Scene",
			"nodes":[
				3
			]
		}
	],
	"nodes":[
		{
			"mesh":0,
			"name":"MagazineEmpty"
		},
		{
			"mesh":1,
			"name":"Slide",
			"translation":[
				0.0694461315870285,
				0.06653624027967453,
				0.0013223484857007861
			]
		},
		{
			"mesh":2,
			"name":"Trigger",
			"translation":[
				0.050135016441345215,
				0.04271606728434563,
				0.00011771954450523481
			]
		},
		{
			"children":[
				0,
				1,
				2
			],
			"mesh":3,
			"name":"Base"
		}
	],
	"meshes":[
		{
			"name":"MagazineEmpty",
			"primitives":[
				{
					"attributes":{
						"POSITION":0,
						"NORMAL":1
					},
					"indices":2
				}
			]
		},
		{
			"name":"Slide",
			"primitives":[
				{
					"attributes":{
						"POSITION":3,
						"NORMAL":4
					},
					"indices":5
				}
			]
		},
		{
			"name":"Trigger",
			"primitives":[
				{
					"attributes":{
						"POSITION":6,
						"NORMAL":7
					},
					"indices":8
				}
			]
		},
		{
			"name":"Base",
			"primitives":[
				{
					"attributes":{
						"POSITION":9,
						"NORMAL":10
					},
					"indices":11
				}
			]
		}
	],
	"accessors":[
		{
			"bufferView":0,
			"componentType":5126,
			"count":196,
			"max":[
				0.044575318694114685,
				0.061351414769887924,
				0.0142606096342206
			],
			"min":[
				-0.03156203031539917,
				-0.0514870248734951,
				-0.014260650612413883
			],
			"type":"VEC3"
		},
		{
			"bufferView":1,
			"componentType":5126,
			"count":196,
			"type":"VEC3"
		},
		{
			"bufferView":2,
			"componentType":5123,
			"count":468,
			"type":"SCALAR"
		},
		{
			"bufferView":3,
			"componentType":5126,
			"count":1188,
			"max":[
				0.09032399207353592,
				0.017854493111371994,
				0.011427913792431355
			],
			"min":[
				-0.09327604621648788,
				-0.018220139667391777,
				-0.014072666876018047
			],
			"type":"VEC3"
		},
		{
			"bufferView":4,
			"componentType":5126,
			"count":1188,
			"type":"VEC3"
		},
		{
			"bufferView":5,
			"componentType":5123,
			"count":3138,
			"type":"SCALAR"
		},
		{
			"bufferView":6,
			"componentType":5126,
			"count":136,
			"max":[
				0.01668325811624527,
				0.008644049987196922,
				0.003882508259266615
			],
			"min":[
				-0.005222599022090435,
				-0.023523008450865746,
				-0.00411799643188715
			],
			"type":"VEC3"
		},
		{
			"bufferView":7,
			"componentType":5126,
			"count":136,
			"type":"VEC3"
		},
		{
			"bufferView":8,
			"componentType":5123,
			"count":384,
			"type":"SCALAR"
		},
		{
			"bufferView":9,
			"componentType":5126,
			"count":1817,
			"max":[
				0.16217932105064392,
				0.07917607575654984,
				0.015743406489491463
			],
			"min":[
				-0.04236675053834915,
				-0.04398317262530327,
				-0.0182004626840353
			],
			"type":"VEC3"
		},
		{
			"bufferView":10,
			"componentType":5126,
			"count":1817,
			"type":"VEC3"
		},
		{
			"bufferView":11,
			"componentType":5123,
			"count":5880,
			"type":"SCALAR"
		}
	],
	"bufferViews":[
		{
			"buffer":0,
			"byteLength":2352,
			"byteOffset":0,
			"target":34962
		},
		{
			"buffer":0,
			"byteLength":2352,
			"byteOffset":2352,
			"target":34962
		},
		{
			"buffer":0,
			"byteLength":936,
			"byteOffset":4704,
			"target":34963
		},
		{
			"buffer":0,
			"byteLength":14256,
			"byteOffset":5640,
			"target":34962
		},
		{
			"buffer":0,
			"byteLength":14256,
			"byteOffset":19896,
			"target":34962
		},
		{
			"buffer":0,
			"byteLength":6276,
			"byteOffset":34152,
			"target":34963
		},
		{
			"buffer":0,
			"byteLength":1632,
			"byteOffset":40428,
			"target":34962
		},
		{
			"buffer":0,
			"byteLength":1632,
			"byteOffset":42060,
			"target":34962
		},
		{
			"buffer":0,
			"byteLength":768,
			"byteOffset":43692,
			"target":34963
		},
		{
			"buffer":0,
			"byteLength":21804,
			"byteOffset":44460,
			"target":34962
		},
		{
			"buffer":0,
			"byteLength":21804,
			"byteOffset":66264,
			"target":34962
		},
		{
			"buffer":0,
			"byteLength":11760,
			"byteOffset":88068,
			"target":34963
		}
	],
	"buffers":[
		{
			"byteLength":99828,
			"uri":"glock.bin"
		}
	]
}
